
<svg xmlns="http://www.w3.org/2000/svg" width="350" height="248" fill="none"><path fill="url(#a)" d="M0 0h350v248H0z"/><path fill="#fff" d="M145.722 130.746h-11.956l13.697-15.042a4.58 4.58 0 0 0 1.12-3.078v-.084a4.22 4.22 0 0 0-1.071-2.672h-.014a4.3 4.3 0 0 0-1.443-1.05 4.3 4.3 0 0 0-1.749-.373h-19.339c-.796 0-1.577.223-2.25.645a4.2 4.2 0 0 0-1.555 1.736l-.025.049-.016.04a4.2 4.2 0 0 0-.398 1.788v.044a4.15 4.15 0 0 0 .886 2.578 4.2 4.2 0 0 0 2.301 1.487h.036l.066.016c.326.075.661.112.996.109h9.609c-.412.46-13.049 14.422-13.609 15.032a3.93 3.93 0 0 0-1.007 2.696v.34299999999999997a4.15 4.15 0 0 0 1.228 3.012 4.24 4.24 0 0 0 3.032 1.233h21.461a4.3 4.3 0 0 0 3.032-1.245 4.227 4.227 0 0 0 0-6.011 4.3 4.3 0 0 0-3.032-1.245zM220.021 108.008c-3.531 0-6.175 2.153-7.858 5.268-1.224-2.272-2.745-4.06-5.09-4.827a9.9 9.9 0 0 0-2.915-.441c-2.803 0-6.024 1.704-6.996 4.67-.549-2.253-2.155-4.248-5.002-4.24h-.071a5.02 5.02 0 0 0-3.484 1.458 4.94 4.94 0 0 0-1.458 3.459v21.029c.007.994.32 1.962.899 2.774a4.9 4.9 0 0 0 2.338 1.767l.058.022.044.017a5.1 5.1 0 0 0 1.666.272q.385-.003.763-.058a4.95 4.95 0 0 0 3.018-1.624 4.87 4.87 0 0 0 1.221-3.181V120.4c0-1.817 1.373-3.486 3.212-3.486s3.215 1.669 3.215 3.486v13.984a4.85 4.85 0 0 0 1.089 3.03 4.92 4.92 0 0 0 2.755 1.699 5 5 0 0 0 2.3 0 4.93 4.93 0 0 0 2.756-1.699 4.85 4.85 0 0 0 1.088-3.03V120.28c0-1.815 1.373-3.355 3.212-3.355s3.212.887 3.212 2.705v14.58a1 1 0 0 0 0 .079v.095a4.85 4.85 0 0 0 1.094 3.034 4.92 4.92 0 0 0 2.763 1.695 5 5 0 0 0 2.29 0 4.92 4.92 0 0 0 2.765-1.695 4.84 4.84 0 0 0 1.095-3.034v-15.325c-.404-11.764-9.979-11.051-9.979-11.051M177.876 108.424a5.02 5.02 0 0 0-3.537 1.453 4.93 4.93 0 0 0-1.465 3.505v12.447c0 2.767-2.724 4.974-5.357 4.974-3.055 0-5.359-2.599-5.356-4.974v-12.67a4.94 4.94 0 0 0-1.584-3.393 5.03 5.03 0 0 0-3.525-1.331 5.03 5.03 0 0 0-3.461 1.487 4.93 4.93 0 0 0-1.429 3.46v.022-.408 10.729c0 7.293 4.162 13.334 10.342 15.459.549.193 3.344.816 5.019.816a15.46 15.46 0 0 0 9.669-3.426c.104-.079.516-.441.519-.443 3.404-3.04 5.169-7.307 5.169-12.403v-10.34a4.92 4.92 0 0 0-1.464-3.51 5.038 5.038 0 0 0-3.54-1.454"/><defs><linearGradient id="a" x1="5.952" x2="384.697" y1="0" y2="171.272" gradientUnits="userSpaceOnUse"><stop stop-color="#C4D4F5"/><stop offset="1" stop-color="#C5E5F7"/></linearGradient></defs></svg>
